if (_typeface_js && _typeface_js.loadFace) _typeface_js.loadFace({"glyphs":{"S":{"x_min":32.984375,"x_max":868,"ha":901,"o":"m 33 329 l 244 329 q 310 186 244 235 q 463 145 367 145 q 588 168 538 145 q 657 268 657 200 q 504 396 657 353 q 218 482 239 471 q 66 714 66 556 q 184 941 66 857 q 436 1015 289 1015 q 713 941 607 1015 q 834 695 834 856 l 623 695 q 427 846 614 846 q 325 820 367 846 q 277 733 277 790 q 331 654 277 679 q 573 583 372 634 q 747 516 690 554 q 868 294 868 438 q 762 66 868 152 q 455 -24 651 -24 q 160 60 276 -24 q 33 329 31 156 "},"¦":{"x_min":80,"x_max":229,"ha":310,"o":"m 80 -24 l 80 358 l 229 358 l 229 -24 l 80 -24 m 229 1015 l 229 633 l 80 633 l 80 1015 l 229 1015 "},"/":{"x_min":-15,"x_max":531,"ha":515,"o":"m -15 -24 l 372 1015 l 531 1015 l 143 -24 l -15 -24 "},"y":{"x_min":-8,"x_max":730,"ha":721,"o":"m 730 718 l 429 -90 q 340 -215 397 -177 q 182 -253 283 -253 q 61 -246 128 -253 l 61 -83 q 176 -90 165 -91 q 253 0 253 -84 q 244 44 253 23 l -8 718 l 203 718 l 365 226 l 368 226 l 525 718 l 730 718 "},"Ž":{"x_min":32,"x_max":868,"ha":900,"o":"m 32 0 l 32 172 l 563 809 l 73 809 l 73 992 l 854 992 l 854 820 l 322 183 l 868 183 l 868 0 l 32 0 m 695 1278 l 542 1081 l 361 1081 l 207 1278 l 362 1278 l 451 1165 l 542 1278 l 695 1278 "},"Á":{"x_min":-9,"x_max":962,"ha":951,"o":"m -9 0 l 367 992 l 591 992 l 962 0 l 735 0 l 660 221 l 289 221 l 211 0 l -9 0 m 475 747 l 346 384 l 603 384 l 478 747 l 475 747 m 722 1278 l 508 1081 l 371 1081 l 504 1278 l 722 1278 "},"g":{"x_min":54,"x_max":767,"ha":849,"o":"m 767 718 l 767 45 q 394 -272 767 -272 q 186 -217 273 -272 q 77 -41 84 -155 l 273 -41 q 420 -140 297 -140 q 579 37 579 -140 l 579 131 l 576 131 q 360 21 512 21 q 126 128 208 21 q 54 382 54 223 q 133 629 54 530 q 362 738 217 738 q 576 622 510 738 l 579 622 l 579 718 l 767 718 m 410 170 q 537 231 491 170 q 579 368 579 285 q 410 589 579 589 q 289 526 331 589 q 251 385 251 472 q 285 239 251 296 q 410 170 327 170 "},"²":{"x_min":37.96875,"x_max":507,"ha":544,"o":"m 180 750 l 38 750 q 100 926 36 861 q 289 992 164 992 q 441 944 381 992 q 507 804 507 893 q 394 626 507 699 q 296 566 345 597 q 210 490 239 530 l 500 490 l 500 379 l 38 379 q 94 544 39 479 q 231 651 130 587 q 319 709 308 700 q 365 794 365 747 q 341 856 365 832 q 280 881 317 881 q 199 836 227 881 q 180 750 177 800 "},"–":{"x_min":0,"x_max":694,"ha":694,"o":"m 0 294 l 0 464 l 694 464 l 694 294 l 0 294 "},"ë":{"x_min":41,"x_max":757.515625,"ha":797,"o":"m 756 311 l 238 311 q 414 130 246 130 q 517 160 471 130 q 570 222 560 186 l 743 222 q 407 -19 664 -19 q 140 85 239 -19 q 41 358 41 190 q 143 630 41 522 q 407 738 245 738 q 678 607 582 738 q 756 311 767 487 m 238 436 l 559 436 q 402 589 531 589 q 274 533 318 589 q 238 436 240 491 m 448 829 l 448 992 l 636 992 l 636 829 l 448 829 m 162 829 l 162 992 l 350 992 l 350 829 l 162 829 "},"ƒ":{"x_min":-6,"x_max":711,"ha":772,"o":"m -6 -231 l 20 -83 q 75 -87 44 -87 q 148 -62 125 -88 q 175 11 166 -41 l 263 468 l 135 468 l 160 600 l 287 600 l 320 776 q 408 961 345 908 q 606 1015 471 1015 q 711 1005 662 1015 l 685 856 q 630 866 662 866 q 555 846 577 866 q 524 780 532 827 l 489 600 l 625 600 l 603 468 l 464 468 l 387 37 q 306 -169 359 -112 q 96 -236 242 -236 q -6 -231 52 -236 "},"Î":{"x_min":-39,"x_max":449,"ha":410,"o":"m 96 0 l 96 992 l 314 992 l 314 0 l 96 0 m -39 1081 l 115 1278 l 296 1278 l 449 1081 l 286 1081 l 200 1193 l 111 1081 l -39 1081 "},"e":{"x_min":41,"x_max":757.515625,"ha":797,"o":"m 756 311 l 238 311 q 414 130 246 130 q 517 160 471 130 q 570 222 560 186 l 743 222 q 407 -19 664 -19 q 140 85 239 -19 q 41 358 41 190 q 143 630 41 522 q 407 738 245 738 q 678 607 582 738 q 756 311 767 487 m 238 436 l 559 436 q 402 589 531 589 q 274 533 318 589 q 238 436 240 491 "},"Ã":{"x_min":-9,"x_max":962,"ha":951,"o":"m -9 0 l 367 992 l 591 992 l 962 0 l 735 0 l 660 221 l 289 221 l 211 0 l -9 0 m 475 747 l 346 384 l 603 384 l 478 747 l 475 747 m 634 1266 l 634 1266 l 731 1266 q 682 1156 707 1186 q 575 1107 644 1107 q 466 1131 535 1107 q 364 1155 397 1155 q 305 1096 319 1155 l 221 1096 q 396 1266 258 1266 q 486 1241 427 1266 q 576 1217 544 1217 q 634 1266 637 1217 "},"J":{"x_min":20,"x_max":677,"ha":772,"o":"m 677 992 l 677 312 q 346 -24 677 -24 q 121 48 210 -24 q 20 283 20 130 l 20 369 l 217 369 l 217 324 q 343 159 217 159 q 445 214 420 159 q 459 321 459 246 l 459 992 l 677 992 "},"»":{"x_min":58,"x_max":558,"ha":617,"o":"m 340 643 l 558 472 l 558 284 l 340 111 l 340 277 l 464 377 l 340 476 l 340 643 m 58 643 l 276 472 l 276 284 l 58 111 l 58 277 l 183 377 l 58 476 l 58 643 "},"‐":{"x_min":73,"x_max":491,"ha":565,"o":"m 73 294 l 73 464 l 491 464 l 491 294 l 73 294 "},"©":{"x_min":22,"x_max":1089,"ha":1111,"o":"m 22 495 q 183 874 22 726 q 555 1015 335 1015 q 927 874 775 1015 q 1089 495 1089 726 q 927 117 1089 266 q 555 -24 775 -24 q 183 117 335 -24 q 22 495 22 266 m 164 495 q 277 203 164 320 q 555 87 390 87 q 833 203 719 87 q 947 495 947 320 q 833 787 947 671 q 555 904 719 904 q 277 787 390 904 q 164 495 164 671 m 714 409 l 827 409 q 740 249 810 308 q 574 190 670 190 q 358 278 441 190 q 276 498 276 366 q 355 723 276 636 q 571 810 435 810 q 740 753 670 810 q 823 594 809 697 l 714 594 q 665 671 705 643 q 571 699 625 699 q 451 644 493 699 q 409 501 409 589 q 454 359 409 417 q 574 301 500 301 q 670 330 631 301 q 714 409 709 359 "},"˘":{"x_min":-54,"x_max":414.0625,"ha":360,"o":"m -54 1010 l 36 1010 q 88 931 42 958 q 173 911 124 911 q 326 1010 302 911 l 414 1010 q 166 807 387 807 q -54 1010 -37 807 "},"ò":{"x_min":53,"x_max":796,"ha":849,"o":"m 53 358 q 154 634 53 531 q 423 738 255 738 q 694 634 593 738 q 796 358 796 531 q 694 84 796 187 q 423 -19 593 -19 q 154 84 255 -19 q 53 358 53 187 m 250 358 q 287 202 250 260 q 423 130 332 130 q 599 358 599 130 q 423 589 599 589 q 250 358 250 589 m 392 807 l 179 1004 l 396 1004 l 530 807 l 392 807 "},"^":{"x_min":84,"x_max":748,"ha":833,"o":"m 84 438 l 322 972 l 509 972 l 748 438 l 585 438 l 416 819 l 246 438 l 84 438 "},"«":{"x_min":58,"x_max":558,"ha":617,"o":"m 558 111 l 340 284 l 340 472 l 558 643 l 558 476 l 433 377 l 558 277 l 558 111 m 276 111 l 58 284 l 58 472 l 276 643 l 276 476 l 151 377 l 276 277 l 276 111 "},"D":{"x_min":96,"x_max":974,"ha":1029,"o":"m 96 0 l 96 992 l 523 992 q 844 869 725 992 q 974 501 974 740 q 862 143 974 276 q 523 0 743 0 l 96 0 m 314 809 l 314 183 l 508 183 q 679 249 614 183 q 756 480 756 327 q 694 719 756 640 q 469 809 625 809 l 314 809 "},"∙":{"x_min":76,"x_max":311,"ha":386,"o":"m 76 398 q 110 482 76 447 q 194 517 145 517 q 276 481 241 517 q 311 398 311 446 q 276 318 311 354 q 195 282 241 282 q 111 316 146 282 q 76 398 76 351 "},"ł":{"x_min":-12,"x_max":371.328125,"ha":358,"o":"m 81 0 l 81 397 l -12 323 l -12 465 l 81 539 l 81 992 l 278 992 l 278 694 l 371 768 l 371 626 l 278 552 l 278 0 l 81 0 "},"ÿ":{"x_min":-8,"x_max":730,"ha":721,"o":"m 730 718 l 429 -90 q 340 -215 397 -177 q 182 -253 283 -253 q 61 -246 128 -253 l 61 -83 q 176 -90 165 -91 q 253 0 253 -84 q 244 44 253 23 l -8 718 l 203 718 l 365 226 l 368 226 l 525 718 l 730 718 m 410 829 l 410 992 l 598 992 l 598 829 l 410 829 m 124 829 l 124 992 l 312 992 l 312 829 l 124 829 "},"Ł":{"x_min":-14,"x_max":798.5,"ha":824,"o":"m 97 0 l 97 297 l -14 219 l -14 375 l 97 452 l 97 992 l 315 992 l 315 605 l 608 811 l 608 655 l 315 449 l 315 183 l 798 183 l 798 0 l 97 0 "},"í":{"x_min":75,"x_max":426,"ha":358,"o":"m 80 0 l 80 718 l 277 718 l 277 0 l 80 0 m 426 1004 l 212 807 l 75 807 l 208 1004 l 426 1004 "},"ˆ":{"x_min":-64,"x_max":424,"ha":360,"o":"m -64 807 l 90 1004 l 271 1004 l 424 807 l 261 807 l 175 919 l 86 807 l -64 807 "},"w":{"x_min":8,"x_max":1122,"ha":1131,"o":"m 1122 718 l 895 0 l 692 0 l 565 482 l 562 482 l 439 0 l 235 0 l 8 718 l 216 718 l 348 231 l 351 231 l 470 718 l 662 718 l 784 231 l 787 231 l 919 718 l 1122 718 "},"$":{"x_min":-1,"x_max":774,"ha":772,"o":"m 345 626 l 345 853 q 257 822 295 853 q 220 737 220 791 q 248 666 220 691 q 345 626 276 641 m 427 405 l 427 139 q 527 176 486 144 q 577 275 577 213 q 545 355 577 329 q 427 405 513 381 m -1 322 l 196 322 q 236 200 194 248 q 345 139 278 151 l 345 429 q 300 441 340 430 q 109 525 170 476 q 23 718 23 593 q 121 935 23 853 q 345 1016 210 1007 l 345 1122 l 427 1122 l 427 1016 q 640 932 560 1000 q 739 719 730 855 l 542 719 q 507 814 540 775 q 427 853 474 853 l 427 607 q 497 588 449 601 q 737 434 675 540 q 774 266 774 372 q 704 98 774 178 q 427 -24 608 -11 l 427 -142 l 345 -142 l 345 -24 q -1 322 29 0 "},"\\":{"x_min":-15,"x_max":531,"ha":515,"o":"m 143 1015 l 531 -24 l 372 -24 l -15 1015 l 143 1015 "},"Ì":{"x_min":-40,"x_max":314,"ha":410,"o":"m 96 0 l 96 992 l 314 992 l 314 0 l 96 0 m 173 1081 l -40 1278 l 177 1278 l 311 1081 l 173 1081 "},"µ":{"x_min":75,"x_max":748,"ha":824,"o":"m 748 718 l 748 0 l 561 0 l 561 100 l 556 100 q 465 10 522 44 q 376 -19 415 -19 q 272 13 302 -19 l 272 -253 l 75 -253 l 75 718 l 272 718 l 272 312 q 398 136 272 136 q 514 184 478 136 q 551 341 551 233 l 551 718 l 748 718 "},"Ç":{"x_min":53,"x_max":976.609375,"ha":1029,"o":"m 765 381 l 976 381 q 843 88 959 197 q 544 -23 726 -20 l 508 -73 l 511 -73 q 558 -67 525 -67 q 647 -91 609 -67 q 686 -164 686 -116 q 523 -303 686 -303 q 351 -272 440 -303 l 380 -205 q 497 -231 439 -231 q 553 -183 553 -231 q 497 -139 553 -139 q 441 -148 468 -139 l 412 -115 l 479 -19 q 165 147 282 1 q 53 491 53 286 q 182 863 53 719 q 540 1015 315 1015 q 826 922 709 1015 q 968 658 948 824 l 757 658 q 684 781 747 731 q 540 832 622 832 q 332 726 402 832 q 271 491 271 636 q 332 263 271 352 q 540 159 404 159 q 697 222 637 159 q 765 381 752 280 "},"’":{"x_min":94,"x_max":291,"ha":386,"o":"m 94 778 l 94 992 l 291 992 l 291 778 q 236 621 291 686 q 94 546 181 557 l 94 637 q 185 778 185 668 l 94 778 "},"-":{"x_min":73,"x_max":491,"ha":565,"o":"m 73 294 l 73 464 l 491 464 l 491 294 l 73 294 "},"Q":{"x_min":53,"x_max":1028,"ha":1081,"o":"m 1022 13 l 921 -93 l 780 34 q 540 -24 679 -24 q 182 126 316 -24 q 53 491 53 269 q 182 863 53 719 q 540 1015 315 1015 q 898 863 765 1015 q 1028 491 1028 719 q 898 126 1028 272 l 1022 13 m 534 257 l 636 366 l 748 263 q 810 491 810 348 q 748 726 810 636 q 540 832 678 832 q 332 726 402 832 q 271 491 271 635 q 332 263 271 352 q 540 159 404 159 q 628 172 612 159 l 534 257 "},"M":{"x_min":96,"x_max":1164,"ha":1260,"o":"m 96 0 l 96 992 l 402 992 l 634 310 l 637 310 l 857 992 l 1164 992 l 1164 0 l 960 0 l 960 703 l 960 703 l 714 0 l 545 0 l 300 695 l 300 695 l 300 0 l 96 0 "},"C":{"x_min":53,"x_max":976.609375,"ha":1029,"o":"m 968 658 l 757 658 q 684 781 747 731 q 540 832 622 832 q 332 726 402 832 q 271 491 271 635 q 332 263 271 352 q 540 159 404 159 q 697 221 637 159 q 765 381 752 280 l 976 381 q 841 86 959 197 q 540 -24 722 -24 q 182 126 316 -24 q 53 491 53 269 q 182 863 53 719 q 540 1015 315 1015 q 826 922 709 1015 q 968 658 948 824 "},"œ":{"x_min":53,"x_max":1246,"ha":1286,"o":"m 733 436 l 1049 436 q 888 589 1042 589 q 776 545 817 589 q 733 436 735 502 m 402 130 q 561 361 561 130 q 406 589 561 589 q 283 514 323 589 q 250 356 250 451 q 281 206 250 267 q 402 130 322 130 m 1246 311 l 733 311 q 774 182 733 230 q 904 130 820 130 q 1049 227 1008 130 l 1240 227 q 1116 46 1205 111 q 904 -19 1026 -19 q 644 102 721 -19 q 390 -19 575 -19 q 139 94 230 -19 q 53 362 53 200 q 150 631 53 524 q 405 738 247 738 q 652 623 582 738 q 759 708 689 676 q 893 738 825 738 q 1165 610 1072 738 q 1246 311 1246 498 "},"!":{"x_min":84,"x_max":302,"ha":386,"o":"m 296 992 l 296 725 l 241 298 l 142 298 l 90 725 l 90 992 l 296 992 m 84 0 l 84 214 l 302 214 l 302 0 l 84 0 "},"ç":{"x_min":53,"x_max":761.328125,"ha":797,"o":"m 570 275 l 761 275 q 656 61 743 137 q 430 -18 569 -13 l 391 -73 l 394 -73 q 441 -67 408 -67 q 530 -91 492 -67 q 569 -164 569 -116 q 406 -303 569 -303 q 234 -272 323 -303 l 264 -205 q 380 -231 322 -231 q 436 -183 436 -231 q 380 -139 436 -139 q 325 -148 351 -139 l 296 -115 l 365 -15 q 138 100 223 0 q 53 348 53 200 q 148 626 53 521 q 419 738 248 738 q 647 671 555 738 q 757 465 748 596 l 564 465 q 418 589 544 589 q 286 512 331 589 q 250 355 250 448 q 286 204 250 265 q 413 129 329 129 q 570 275 550 129 "},"È":{"x_min":96,"x_max":848.78125,"ha":900,"o":"m 96 0 l 96 992 l 837 992 l 837 809 l 314 809 l 314 595 l 794 595 l 794 426 l 314 426 l 314 183 l 848 183 l 848 0 l 96 0 m 419 1081 l 206 1278 l 423 1278 l 557 1081 l 419 1081 "},"{":{"x_min":-11,"x_max":464,"ha":463,"o":"m 464 1015 l 464 859 l 389 859 q 314 757 314 859 l 314 546 q 176 383 314 401 l 176 378 q 261 344 223 374 q 314 226 314 302 l 314 4 q 389 -97 314 -97 l 464 -97 l 464 -253 l 287 -253 q 179 -207 230 -253 q 117 -65 117 -151 l 117 205 q 69 294 117 262 q -11 320 32 320 l -11 441 q 69 469 32 441 q 117 566 117 503 l 117 827 q 179 969 117 913 q 287 1015 230 1015 l 464 1015 "},"X":{"x_min":-8,"x_max":935,"ha":926,"o":"m -8 0 l 339 519 l 19 992 l 272 992 l 467 675 l 668 992 l 907 992 l 589 518 l 935 0 l 675 0 l 458 343 l 237 0 l -8 0 "},"ô":{"x_min":53,"x_max":796,"ha":849,"o":"m 53 358 q 154 634 53 531 q 423 738 255 738 q 694 634 593 738 q 796 358 796 531 q 694 84 796 187 q 423 -19 593 -19 q 154 84 255 -19 q 53 358 53 187 m 250 358 q 287 202 250 260 q 423 130 332 130 q 599 358 599 130 q 423 589 599 589 q 250 358 250 589 m 180 807 l 334 1004 l 515 1004 l 668 807 l 505 807 l 419 919 l 330 807 l 180 807 "},"¼":{"x_min":34,"x_max":1170.125,"ha":1239,"o":"m 211 -31 l 786 1003 l 904 1003 l 332 -31 l 211 -31 m 329 979 l 329 379 l 187 379 l 187 760 l 34 760 l 34 864 q 212 979 195 858 l 329 979 m 958 0 l 958 124 l 690 124 l 690 253 l 952 583 l 1091 583 l 1091 235 l 1170 235 l 1170 124 l 1091 124 l 1091 0 l 958 0 m 958 235 l 958 434 l 958 434 l 796 235 l 958 235 "},"#":{"x_min":46,"x_max":727,"ha":772,"o":"m 122 0 l 161 275 l 46 275 l 46 400 l 177 400 l 202 572 l 87 572 l 87 697 l 219 697 l 258 972 l 393 972 l 354 697 l 489 697 l 526 972 l 661 972 l 623 697 l 727 697 l 727 572 l 605 572 l 582 400 l 684 400 l 684 275 l 564 275 l 526 0 l 391 0 l 429 275 l 296 275 l 257 0 l 122 0 m 471 572 l 337 572 l 312 400 l 447 400 l 471 572 "},"Ê":{"x_min":96,"x_max":848.78125,"ha":900,"o":"m 96 0 l 96 992 l 837 992 l 837 809 l 314 809 l 314 595 l 794 595 l 794 426 l 314 426 l 314 183 l 848 183 l 848 0 l 96 0 m 207 1081 l 361 1278 l 542 1278 l 695 1081 l 532 1081 l 446 1193 l 357 1081 l 207 1081 "},")":{"x_min":-8,"x_max":340,"ha":411,"o":"m 156 -253 l -8 -253 q 143 374 143 33 q -6 1015 143 720 l 156 1015 q 340 388 340 708 q 294 55 340 224 q 156 -253 244 -126 "},"Å":{"x_min":-9,"x_max":962,"ha":951,"o":"m -9 0 l 367 992 l 591 992 l 962 0 l 735 0 l 660 221 l 289 221 l 211 0 l -9 0 m 475 747 l 346 384 l 603 384 l 478 747 l 475 747 m 388 1185 q 412 1115 388 1143 q 475 1088 436 1088 q 539 1115 514 1088 q 564 1185 564 1143 q 539 1255 564 1227 q 475 1283 514 1283 q 412 1255 436 1283 q 388 1185 388 1227 m 306 1185 q 355 1304 306 1254 q 475 1355 405 1355 q 596 1304 546 1355 q 646 1185 646 1254 q 596 1066 646 1116 q 475 1016 546 1016 q 355 1066 405 1016 q 306 1185 306 1116 "},"ø":{"x_min":53,"x_max":796,"ha":849,"o":"m 270 238 l 539 544 q 423 589 497 589 q 250 358 250 589 q 270 238 250 286 m 576 484 l 305 177 q 423 130 348 130 q 599 358 599 130 q 576 484 599 430 m 61 1 l 144 95 q 53 358 53 196 q 154 634 53 530 q 423 738 255 738 q 650 670 555 738 l 723 756 l 775 711 l 700 626 q 796 358 796 524 q 694 84 796 187 q 423 -19 593 -19 q 194 50 289 -19 l 112 -43 l 61 1 "},"â":{"x_min":45,"x_max":745.015625,"ha":797,"o":"m 523 277 l 523 351 q 420 319 499 330 q 300 293 329 305 q 242 204 242 266 q 363 113 242 113 q 523 277 523 113 m 264 497 l 67 497 q 179 686 75 625 q 404 738 265 738 q 720 533 720 738 l 720 159 q 745 0 720 40 l 545 0 q 531 69 532 38 q 289 -19 446 -19 q 115 33 181 -19 q 45 196 45 90 q 121 360 45 306 q 289 414 177 397 q 452 437 449 436 q 523 508 523 456 q 484 589 523 567 q 395 606 456 606 q 264 497 274 606 m 155 807 l 309 1004 l 490 1004 l 643 807 l 480 807 l 394 919 l 305 807 l 155 807 "},"}":{"x_min":0,"x_max":475,"ha":463,"o":"m 0 -253 l 0 -97 l 75 -97 q 150 4 150 -97 l 150 226 q 202 344 150 302 q 287 378 240 374 l 287 383 q 150 546 150 401 l 150 757 q 75 859 150 859 l 0 859 l 0 1015 l 176 1015 q 284 969 233 1015 q 347 827 347 913 l 347 566 q 394 469 347 503 q 475 441 431 441 l 475 320 q 394 294 431 320 q 347 205 347 262 l 347 -65 q 284 -207 347 -151 q 176 -253 233 -253 l 0 -253 "},"‰":{"x_min":96,"x_max":1497,"ha":1593,"o":"m 736 238 q 747 125 736 161 q 814 71 765 71 q 882 120 866 71 q 892 219 892 147 q 882 320 892 291 q 816 368 865 368 q 736 238 736 368 m 1092 215 q 1140 385 1092 320 q 1295 458 1193 458 q 1497 216 1497 458 q 1449 48 1497 109 q 1294 -19 1397 -19 q 1145 45 1198 -19 q 1092 215 1092 109 m 1217 238 q 1228 125 1217 161 q 1294 71 1246 71 q 1362 120 1347 71 q 1372 219 1372 147 q 1362 320 1372 291 q 1297 368 1345 368 q 1217 238 1217 368 m 96 748 q 144 919 96 854 q 300 992 197 992 q 502 750 502 992 q 454 582 502 643 q 299 514 401 514 q 149 578 203 514 q 96 748 96 643 m 221 772 q 232 658 221 694 q 299 604 250 604 q 367 654 351 604 q 377 753 377 680 q 367 854 377 825 q 301 902 350 902 q 221 772 221 902 m 208 -31 l 783 1003 l 901 1003 l 329 -31 l 208 -31 m 611 215 q 659 385 611 320 q 815 458 712 458 q 1017 216 1017 458 q 969 48 1017 109 q 814 -19 916 -19 q 664 45 718 -19 q 611 215 611 109 "},"Ä":{"x_min":-9,"x_max":962,"ha":951,"o":"m -9 0 l 367 992 l 591 992 l 962 0 l 735 0 l 660 221 l 289 221 l 211 0 l -9 0 m 475 747 l 346 384 l 603 384 l 478 747 l 475 747 m 525 1103 l 525 1266 l 713 1266 l 713 1103 l 525 1103 m 239 1103 l 239 1266 l 427 1266 l 427 1103 l 239 1103 "},"¸":{"x_min":16,"x_max":350,"ha":360,"o":"m 16 -273 l 45 -205 q 161 -231 103 -231 q 217 -183 217 -231 q 161 -139 217 -139 q 106 -148 132 -139 l 77 -115 l 159 3 l 227 3 l 172 -73 l 175 -73 q 222 -67 189 -67 q 311 -91 273 -67 q 350 -164 350 -116 q 187 -303 350 -303 q 16 -273 104 -303 "},"a":{"x_min":45,"x_max":745.015625,"ha":797,"o":"m 523 277 l 523 351 q 420 319 499 330 q 300 293 329 305 q 242 204 242 266 q 363 113 242 113 q 523 277 523 113 m 264 497 l 67 497 q 179 686 75 625 q 404 738 265 738 q 720 533 720 738 l 720 159 q 745 0 720 40 l 545 0 q 531 69 532 38 q 289 -19 446 -19 q 115 33 181 -19 q 45 196 45 90 q 121 360 45 306 q 289 414 177 397 q 452 437 449 436 q 523 508 523 456 q 484 589 523 567 q 395 606 456 606 q 264 497 274 606 "},"—":{"x_min":0,"x_max":1389,"ha":1389,"o":"m 0 294 l 0 464 l 1389 464 l 1389 294 l 0 294 "},"=":{"x_min":66,"x_max":767,"ha":833,"o":"m 767 574 l 767 425 l 66 425 l 66 574 l 767 574 m 767 277 l 767 128 l 66 128 l 66 277 l 767 277 "},"N":{"x_min":96,"x_max":933,"ha":1029,"o":"m 96 0 l 96 992 l 313 992 l 729 326 l 729 326 l 729 992 l 933 992 l 933 0 l 714 0 l 300 663 l 300 663 l 300 0 l 96 0 "},"˚":{"x_min":10,"x_max":350,"ha":360,"o":"m 92 911 q 116 841 92 869 q 179 814 140 814 q 243 841 218 814 q 268 911 268 869 q 243 981 268 953 q 179 1009 218 1009 q 116 981 140 1009 q 92 911 92 953 m 10 911 q 59 1030 10 980 q 179 1081 109 1081 q 300 1030 250 1081 q 350 911 350 980 q 300 792 350 842 q 179 742 250 742 q 59 792 109 742 q 10 911 10 842 "},"ú":{"x_min":75,"x_max":748,"ha":824,"o":"m 748 718 l 748 0 l 561 0 l 561 100 l 556 100 q 337 -19 483 -19 q 127 62 188 -19 q 75 276 75 130 l 75 718 l 272 718 l 272 312 q 398 136 272 136 q 514 184 478 136 q 551 341 551 233 l 551 718 l 748 718 m 658 1004 l 444 807 l 307 807 l 440 1004 l 658 1004 "},"⁄":{"x_min":-230,"x_max":463,"ha":232,"o":"m -230 -31 l 344 1003 l 463 1003 l -109 -31 l -230 -31 "},"2":{"x_min":29,"x_max":742.890625,"ha":772,"o":"m 240 598 l 51 598 q 139 881 45 770 q 403 992 232 992 q 637 911 542 992 q 737 687 737 825 q 650 466 737 558 q 462 326 607 420 q 283 169 334 241 l 742 169 l 742 0 l 29 0 q 119 259 30 151 q 335 435 176 326 q 470 531 449 512 q 540 672 540 595 q 499 781 540 740 q 394 823 458 823 q 273 749 313 823 q 240 598 240 689 "},"ü":{"x_min":75,"x_max":748,"ha":824,"o":"m 748 718 l 748 0 l 561 0 l 561 100 l 556 100 q 337 -19 483 -19 q 127 62 188 -19 q 75 276 75 130 l 75 718 l 272 718 l 272 312 q 398 136 272 136 q 514 184 478 136 q 551 341 551 233 l 551 718 l 748 718 m 461 829 l 461 992 l 649 992 l 649 829 l 461 829 m 175 829 l 175 992 l 363 992 l 363 829 l 175 829 "},"¯":{"x_min":-79,"x_max":439,"ha":360,"o":"m -79 856 l -79 960 l 439 960 l 439 856 l -79 856 "},"Z":{"x_min":32,"x_max":868,"ha":900,"o":"m 32 0 l 32 172 l 563 809 l 73 809 l 73 992 l 854 992 l 854 820 l 322 183 l 868 183 l 868 0 l 32 0 "},"u":{"x_min":75,"x_max":748,"ha":824,"o":"m 748 718 l 748 0 l 561 0 l 561 100 l 556 100 q 337 -19 483 -19 q 127 62 188 -19 q 75 276 75 130 l 75 718 l 272 718 l 272 312 q 398 136 272 136 q 514 184 478 136 q 551 341 551 233 l 551 718 l 748 718 "},"":{"x_min":1,"x_max":769,"ha":849,"o":"m 572 0 l 572 992 l 769 992 l 769 0 l 572 0 m 119 0 l 119 586 l 1 586 l 1 718 l 119 718 l 119 773 q 180 932 119 872 q 359 992 242 992 q 412 989 378 992 q 463 986 453 986 l 463 838 q 391 843 428 843 q 316 761 316 843 l 316 718 l 452 718 l 452 586 l 316 586 l 316 0 l 119 0 "},"˜":{"x_min":-75,"x_max":435,"ha":360,"o":"m 338 992 l 338 992 l 435 992 q 386 882 411 912 q 279 833 348 833 q 170 857 239 833 q 68 881 101 881 q 9 822 23 881 l -75 822 q 100 992 -37 992 q 190 967 131 992 q 280 943 248 943 q 338 992 341 943 "},"Ó":{"x_min":53,"x_max":1028,"ha":1081,"o":"m 53 491 q 182 863 53 719 q 540 1015 315 1015 q 898 863 765 1015 q 1028 491 1028 719 q 898 126 1028 269 q 540 -24 764 -24 q 182 126 316 -24 q 53 491 53 269 m 271 491 q 332 263 271 352 q 540 159 404 159 q 748 263 676 159 q 810 491 810 352 q 748 726 810 635 q 540 832 678 832 q 332 726 402 832 q 271 491 271 635 m 787 1278 l 573 1081 l 436 1081 l 569 1278 l 787 1278 "},"k":{"x_min":93,"x_max":802.71875,"ha":797,"o":"m 93 0 l 93 992 l 290 992 l 290 459 l 538 718 l 772 718 l 501 454 l 802 0 l 563 0 l 366 321 l 290 247 l 290 0 l 93 0 "},"ˇ":{"x_min":-64,"x_max":424,"ha":360,"o":"m 424 1004 l 271 807 l 90 807 l -64 1004 l 91 1004 l 180 891 l 271 1004 l 424 1004 "},"Ù":{"x_min":91,"x_max":937,"ha":1029,"o":"m 937 992 l 937 374 q 826 76 937 177 q 513 -24 716 -24 q 91 374 91 -24 l 91 992 l 309 992 l 309 374 q 345 225 309 275 q 513 159 393 159 q 674 211 627 159 q 719 374 719 260 l 719 992 l 937 992 m 483 1081 l 270 1278 l 487 1278 l 621 1081 l 483 1081 "},"Ÿ":{"x_min":-12,"x_max":939.390625,"ha":926,"o":"m 353 0 l 353 386 l -12 992 l 233 992 l 465 600 l 696 992 l 939 992 l 571 380 l 571 0 l 353 0 m 512 1103 l 512 1266 l 700 1266 l 700 1103 l 512 1103 m 226 1103 l 226 1266 l 414 1266 l 414 1103 l 226 1103 "},"¢":{"x_min":29,"x_max":756.78125,"ha":772,"o":"m 361 130 l 361 589 q 226 367 226 552 q 361 130 226 171 m 361 -160 l 361 -19 q 121 94 213 -9 q 29 347 29 197 q 113 615 29 510 q 361 738 204 724 l 361 856 l 443 856 l 443 738 q 654 662 563 736 q 754 463 749 583 l 561 463 q 523 549 556 513 q 443 589 490 584 l 443 130 q 527 183 492 139 q 563 281 562 228 l 756 281 q 658 72 745 152 q 443 -19 572 -7 l 443 -160 l 361 -160 "},"ß":{"x_min":78,"x_max":771,"ha":849,"o":"m 78 0 l 78 681 q 404 1015 78 1015 q 624 951 537 1015 q 720 748 720 878 q 683 628 720 683 q 590 555 647 573 l 590 552 q 726 464 677 533 q 771 304 771 397 q 684 76 771 172 q 469 -19 598 -19 q 355 -10 412 -19 l 355 150 q 412 144 378 144 q 528 192 482 144 q 574 311 574 241 q 404 481 574 481 q 355 481 389 481 l 355 606 q 386 606 377 606 q 489 637 447 606 q 532 729 532 668 q 398 852 532 852 q 307 815 340 852 q 275 716 275 778 l 275 0 l 78 0 "},"é":{"x_min":41,"x_max":757.515625,"ha":797,"o":"m 756 311 l 238 311 q 414 130 246 130 q 517 160 471 130 q 570 222 560 186 l 743 222 q 407 -19 664 -19 q 140 85 239 -19 q 41 358 41 190 q 143 630 41 522 q 407 738 245 738 q 678 607 582 738 q 756 311 767 487 m 238 436 l 559 436 q 402 589 531 589 q 274 533 318 589 q 238 436 240 491 m 645 1004 l 431 807 l 294 807 l 427 1004 l 645 1004 "},"s":{"x_min":40,"x_max":705,"ha":746,"o":"m 40 233 l 228 233 q 275 140 229 172 q 379 113 315 113 q 465 132 430 113 q 508 204 508 157 q 449 271 508 246 q 284 315 408 289 q 127 374 179 338 q 57 507 57 421 q 369 738 57 738 q 686 508 666 738 l 498 508 q 363 606 491 606 q 254 539 254 606 q 323 468 254 493 q 477 432 331 465 q 634 371 584 407 q 705 231 705 321 q 602 35 705 100 q 377 -19 517 -19 q 149 36 237 -19 q 40 233 45 101 "},"B":{"x_min":96,"x_max":927,"ha":978,"o":"m 314 442 l 314 169 l 547 169 q 709 299 709 169 q 551 442 709 442 l 314 442 m 96 0 l 96 992 l 562 992 q 879 746 879 992 q 744 539 879 604 q 927 287 927 486 q 818 68 927 145 q 576 0 724 0 l 96 0 m 314 823 l 314 591 l 534 591 q 668 709 668 591 q 518 823 668 823 l 314 823 "},"…":{"x_min":122,"x_max":1266,"ha":1389,"o":"m 122 0 l 122 214 l 340 214 l 340 0 l 122 0 m 585 0 l 585 214 l 803 214 l 803 0 l 585 0 m 1048 0 l 1048 214 l 1266 214 l 1266 0 l 1048 0 "},"?":{"x_min":44,"x_max":727,"ha":772,"o":"m 248 672 l 44 672 q 139 919 46 823 q 381 1015 231 1015 q 652 920 559 1015 q 727 747 727 847 q 691 595 727 655 q 610 512 666 554 q 524 445 535 456 q 475 349 483 402 l 475 297 l 287 297 l 287 359 q 327 496 287 440 q 407 576 350 533 q 478 639 463 620 q 509 727 509 677 q 391 852 509 852 q 284 801 320 852 q 248 672 249 751 m 268 0 l 268 214 l 486 214 l 486 0 l 268 0 "},"H":{"x_min":96,"x_max":933,"ha":1029,"o":"m 96 0 l 96 992 l 314 992 l 314 611 l 715 611 l 715 992 l 933 992 l 933 0 l 715 0 l 715 428 l 314 428 l 314 0 l 96 0 "},"î":{"x_min":-64,"x_max":424,"ha":358,"o":"m 80 0 l 80 718 l 277 718 l 277 0 l 80 0 m -64 807 l 90 1004 l 271 1004 l 424 807 l 261 807 l 175 919 l 86 807 l -64 807 "},"c":{"x_min":53,"x_max":761.328125,"ha":797,"o":"m 757 465 l 564 465 q 418 589 544 589 q 286 512 331 589 q 250 356 250 448 q 286 204 250 265 q 413 130 329 130 q 570 275 550 130 l 761 275 q 650 57 743 133 q 415 -19 558 -19 q 153 83 254 -19 q 53 349 53 186 q 148 626 53 521 q 419 738 248 738 q 647 671 555 738 q 757 465 748 596 "},"¶":{"x_min":4,"x_max":745,"ha":861,"o":"m 308 -231 l 308 495 q 84 561 165 495 q 4 739 4 627 q 337 992 4 992 l 745 992 l 745 -231 l 603 -231 l 603 881 l 450 881 l 450 -231 l 308 -231 "},"−":{"x_min":66,"x_max":767,"ha":833,"o":"m 66 276 l 66 425 l 767 425 l 767 276 l 66 276 "},"•":{"x_min":100,"x_max":596,"ha":696,"o":"m 100 495 q 172 670 100 598 q 347 743 244 743 q 523 670 450 743 q 596 495 596 598 q 523 319 596 392 q 347 247 450 247 q 172 319 244 247 q 100 495 100 392 "},"¥":{"x_min":-12,"x_max":801.890625,"ha":772,"o":"m 499 0 l 288 0 l 288 192 l 69 192 l 69 324 l 288 324 l 288 387 l 268 428 l 69 428 l 69 560 l 201 560 l -12 992 l 214 992 l 397 560 l 576 992 l 801 992 l 586 560 l 718 560 l 718 428 l 519 428 l 499 387 l 499 324 l 718 324 l 718 192 l 499 192 l 499 0 "},"(":{"x_min":72,"x_max":420.609375,"ha":411,"o":"m 255 1015 l 420 1015 q 269 385 269 726 q 419 -253 269 38 l 255 -253 q 72 371 72 51 q 117 705 72 535 q 255 1015 167 888 "},"U":{"x_min":91,"x_max":937,"ha":1029,"o":"m 937 992 l 937 374 q 826 76 937 177 q 513 -24 716 -24 q 91 374 91 -24 l 91 992 l 309 992 l 309 374 q 345 225 309 275 q 513 159 393 159 q 674 211 627 159 q 719 374 719 260 l 719 992 l 937 992 "},"Ñ":{"x_min":96,"x_max":933,"ha":1029,"o":"m 96 0 l 96 992 l 313 992 l 729 326 l 729 326 l 729 992 l 933 992 l 933 0 l 714 0 l 300 663 l 300 663 l 300 0 l 96 0 m 673 1266 l 673 1266 l 770 1266 q 721 1156 746 1186 q 614 1107 683 1107 q 505 1131 574 1107 q 403 1155 436 1155 q 344 1096 358 1155 l 260 1096 q 435 1266 297 1266 q 525 1241 466 1266 q 615 1217 583 1217 q 673 1266 676 1217 "},"F":{"x_min":96,"x_max":793.234375,"ha":824,"o":"m 96 0 l 96 992 l 793 992 l 793 809 l 314 809 l 314 579 l 729 579 l 729 410 l 314 410 l 314 0 l 96 0 "},"­":{"x_min":66,"x_max":767,"ha":833,"o":"m 66 276 l 66 425 l 767 425 l 767 276 l 66 276 "},":":{"x_min":84,"x_max":302,"ha":386,"o":"m 84 0 l 84 214 l 302 214 l 302 0 l 84 0 m 302 706 l 302 492 l 84 492 l 84 706 l 302 706 "},"Û":{"x_min":91,"x_max":937,"ha":1029,"o":"m 937 992 l 937 374 q 826 76 937 177 q 513 -24 716 -24 q 91 374 91 -24 l 91 992 l 309 992 l 309 374 q 345 225 309 275 q 513 159 393 159 q 674 211 627 159 q 719 374 719 260 l 719 992 l 937 992 m 271 1081 l 425 1278 l 606 1278 l 759 1081 l 596 1081 l 510 1193 l 421 1081 l 271 1081 "},"*":{"x_min":30,"x_max":534,"ha":565,"o":"m 335 992 l 335 818 l 496 879 l 534 772 l 370 718 l 473 582 l 381 514 l 278 656 l 181 514 l 88 582 l 191 718 l 30 772 l 67 879 l 224 818 l 224 992 l 335 992 "},"†":{"x_min":33,"x_max":738.5625,"ha":772,"o":"m 291 -231 l 291 555 l 33 555 l 33 718 l 291 718 l 291 992 l 479 992 l 479 718 l 738 718 l 738 555 l 479 555 l 479 -231 l 291 -231 "},"°":{"x_min":72,"x_max":483,"ha":556,"o":"m 72 786 q 132 932 72 872 q 277 992 192 992 q 423 932 363 992 q 483 786 483 872 q 423 641 483 701 q 277 581 363 581 q 132 641 192 581 q 72 786 72 701 m 162 786 q 196 700 162 736 q 277 664 231 664 q 358 700 323 664 q 393 786 393 736 q 358 872 393 836 q 277 909 323 909 q 196 872 231 909 q 162 786 162 836 "},"V":{"x_min":-11,"x_max":886,"ha":875,"o":"m 886 992 l 556 0 l 311 0 l -11 992 l 213 992 l 434 294 l 437 294 l 661 992 l 886 992 "},"å":{"x_min":45,"x_max":745.015625,"ha":797,"o":"m 523 277 l 523 351 q 420 319 499 330 q 300 293 329 305 q 242 204 242 266 q 363 113 242 113 q 523 277 523 113 m 264 497 l 67 497 q 179 686 75 625 q 404 738 265 738 q 720 533 720 738 l 720 159 q 745 0 720 40 l 545 0 q 531 69 532 38 q 289 -19 446 -19 q 115 33 181 -19 q 45 196 45 90 q 121 360 45 306 q 289 414 177 397 q 452 437 449 436 q 523 508 523 456 q 484 589 523 567 q 395 606 456 606 q 264 497 274 606 m 311 911 q 335 841 311 869 q 398 814 359 814 q 462 841 437 814 q 487 911 487 869 q 462 981 487 953 q 398 1009 437 1009 q 335 981 359 1009 q 311 911 311 953 m 229 911 q 278 1030 229 980 q 398 1081 328 1081 q 519 1030 469 1081 q 569 911 569 980 q 519 792 569 842 q 398 742 469 742 q 278 792 328 742 q 229 911 229 842 "},"0":{"x_min":29,"x_max":743,"ha":772,"o":"m 29 490 q 134 883 29 755 q 384 992 224 992 q 637 883 545 992 q 743 490 743 757 q 384 -19 743 -19 q 29 490 29 -19 m 226 490 q 245 275 226 349 q 384 144 281 144 q 526 275 488 144 q 546 490 546 349 q 384 829 546 829 q 226 490 226 829 "},"”":{"x_min":75,"x_max":568,"ha":643,"o":"m 371 778 l 371 992 l 568 992 l 568 778 q 513 621 568 686 q 371 546 458 557 l 371 637 q 462 778 462 668 l 371 778 m 75 778 l 75 992 l 272 992 l 272 778 q 217 621 272 686 q 75 546 162 557 l 75 637 q 166 778 166 668 l 75 778 "},"¾":{"x_min":53.96875,"x_max":1197.046875,"ha":1235,"o":"m 331 -31 l 906 1003 l 1024 1003 l 452 -31 l 331 -31 m 251 644 l 251 741 q 383 806 383 741 q 357 860 383 840 q 296 881 331 881 q 228 852 253 881 q 204 780 202 823 l 71 780 q 133 934 73 877 q 295 992 193 992 q 446 948 384 992 q 516 821 516 901 q 424 701 516 725 l 424 698 q 507 653 476 689 q 538 568 538 617 q 465 418 538 472 q 297 367 400 367 q 117 424 183 367 q 54 588 52 482 l 187 588 q 216 509 189 541 q 294 478 244 478 q 366 502 337 478 q 396 565 396 527 q 345 634 396 616 q 251 644 318 644 m 985 0 l 985 124 l 717 124 l 717 253 l 979 583 l 1118 583 l 1118 235 l 1197 235 l 1197 124 l 1118 124 l 1118 0 l 985 0 m 985 235 l 985 434 l 985 434 l 823 235 l 985 235 "},"@":{"x_min":50,"x_max":1061,"ha":1111,"o":"m 405 443 q 434 353 405 387 q 513 320 464 320 q 636 389 583 320 q 683 529 683 453 q 652 613 683 579 q 576 647 621 647 q 453 579 506 647 q 405 443 405 516 m 863 756 l 776 397 q 766 338 766 356 q 788 306 766 306 q 902 380 851 306 q 953 561 953 454 q 844 816 953 723 q 576 904 740 904 q 291 787 399 904 q 183 492 183 671 q 297 199 183 312 q 592 87 412 87 q 891 201 777 87 l 1008 201 q 826 35 937 94 q 584 -24 715 -24 q 205 125 361 -24 q 50 495 50 274 q 204 864 50 713 q 577 1015 359 1015 q 913 899 774 1015 q 1061 591 1061 777 q 931 282 1061 402 q 734 188 829 188 q 664 210 691 188 q 633 268 636 232 l 630 268 q 480 188 582 188 q 327 258 392 188 q 263 425 263 328 q 346 668 263 563 q 565 779 433 779 q 727 681 684 779 l 750 756 l 863 756 "},"ö":{"x_min":53,"x_max":796,"ha":849,"o":"m 53 358 q 154 634 53 531 q 423 738 255 738 q 694 634 593 738 q 796 358 796 531 q 694 84 796 187 q 423 -19 593 -19 q 154 84 255 -19 q 53 358 53 187 m 250 358 q 287 202 250 260 q 423 130 332 130 q 599 358 599 130 q 423 589 599 589 q 250 358 250 589 m 473 829 l 473 992 l 661 992 l 661 829 l 473 829 m 187 829 l 187 992 l 375 992 l 375 829 l 187 829 "},"i":{"x_min":80,"x_max":277,"ha":358,"o":"m 80 0 l 80 718 l 277 718 l 277 0 l 80 0 m 277 992 l 277 829 l 80 829 l 80 992 l 277 992 "},"Õ":{"x_min":53,"x_max":1028,"ha":1081,"o":"m 53 491 q 182 863 53 719 q 540 1015 315 1015 q 898 863 765 1015 q 1028 491 1028 719 q 898 126 1028 269 q 540 -24 764 -24 q 182 126 316 -24 q 53 491 53 269 m 271 491 q 332 263 271 352 q 540 159 404 159 q 748 263 676 159 q 810 491 810 352 q 748 726 810 635 q 540 832 678 832 q 332 726 402 832 q 271 491 271 635 m 699 1266 l 699 1266 l 796 1266 q 747 1156 772 1186 q 640 1107 709 1107 q 531 1131 600 1107 q 429 1155 462 1155 q 370 1096 384 1155 l 286 1096 q 461 1266 323 1266 q 551 1241 492 1266 q 641 1217 609 1217 q 699 1266 702 1217 "},"þ":{"x_min":75,"x_max":805,"ha":849,"o":"m 75 -253 l 75 992 l 272 992 l 272 626 l 272 626 q 477 738 340 738 q 725 621 637 738 q 805 351 805 517 q 725 94 805 197 q 488 -19 638 -19 q 272 88 344 -19 l 272 88 l 272 -253 l 75 -253 m 608 357 q 569 515 608 454 q 435 589 523 589 q 302 516 345 589 q 265 357 265 455 q 304 200 265 260 q 437 130 348 130 q 608 357 608 130 "},"]":{"x_min":2,"x_max":368,"ha":463,"o":"m 368 1015 l 368 -253 l 2 -253 l 2 -97 l 171 -97 l 171 859 l 2 859 l 2 1015 l 368 1015 "},"m":{"x_min":80,"x_max":1177,"ha":1258,"o":"m 80 0 l 80 718 l 266 718 l 266 620 l 268 620 q 488 738 350 738 q 697 618 643 738 q 914 738 777 738 q 1177 480 1177 738 l 1177 0 l 980 0 l 980 406 q 961 530 980 494 q 859 582 935 582 q 727 400 727 582 l 727 0 l 530 0 l 530 402 q 517 523 530 493 q 410 582 492 582 q 329 551 364 582 q 277 416 277 508 l 277 0 l 80 0 "},"8":{"x_min":19,"x_max":752,"ha":772,"o":"m 216 295 q 266 175 216 221 q 388 130 316 130 q 507 175 460 130 q 555 293 555 221 q 507 405 555 361 q 388 449 459 449 q 266 410 313 449 q 216 295 216 367 m 59 726 q 163 925 59 850 q 386 992 257 992 q 639 897 549 992 q 712 730 712 821 q 570 524 712 575 l 570 523 q 704 441 656 504 q 752 286 752 377 q 638 57 752 141 q 388 -19 535 -19 q 132 54 235 -19 q 19 285 19 136 q 67 439 19 376 q 202 524 116 503 l 202 526 q 59 726 59 567 m 238 708 q 281 614 238 647 q 386 581 324 581 q 491 614 449 581 q 533 708 533 648 q 506 794 533 759 q 386 843 467 843 q 281 806 324 843 q 238 708 238 770 "},"ž":{"x_min":30,"x_max":690,"ha":721,"o":"m 30 0 l 30 149 l 403 569 l 57 569 l 57 718 l 663 718 l 663 569 l 289 148 l 690 149 l 690 0 l 30 0 m 605 1004 l 452 807 l 271 807 l 117 1004 l 272 1004 l 361 891 l 452 1004 l 605 1004 "},"R":{"x_min":96,"x_max":950.171875,"ha":1003,"o":"m 96 0 l 96 992 l 630 992 q 843 911 761 992 q 921 718 921 833 q 764 469 921 533 l 764 466 q 908 234 894 433 q 916 115 912 175 q 950 0 924 34 l 731 0 q 708 112 716 37 q 697 237 702 175 q 649 353 685 318 q 531 388 612 388 l 314 388 l 314 0 l 96 0 m 314 823 l 314 544 l 552 544 q 703 685 703 544 q 552 823 703 823 l 314 823 "},"á":{"x_min":45,"x_max":745.015625,"ha":797,"o":"m 523 277 l 523 351 q 420 319 499 330 q 300 293 329 305 q 242 204 242 266 q 363 113 242 113 q 523 277 523 113 m 264 497 l 67 497 q 179 686 75 625 q 404 738 265 738 q 720 533 720 738 l 720 159 q 745 0 720 40 l 545 0 q 531 69 532 38 q 289 -19 446 -19 q 115 33 181 -19 q 45 196 45 90 q 121 360 45 306 q 289 414 177 397 q 452 437 449 436 q 523 508 523 456 q 484 589 523 567 q 395 606 456 606 q 264 497 274 606 m 645 1004 l 431 807 l 294 807 l 427 1004 l 645 1004 "},"×":{"x_min":89,"x_max":746,"ha":833,"o":"m 194 24 l 89 129 l 312 351 l 89 573 l 195 679 l 416 456 l 639 679 l 746 573 l 522 351 l 746 129 l 640 24 l 418 247 l 194 24 "},"o":{"x_min":53,"x_max":796,"ha":849,"o":"m 53 358 q 154 634 53 531 q 423 738 255 738 q 694 634 593 738 q 796 358 796 531 q 694 84 796 187 q 423 -19 593 -19 q 154 84 255 -19 q 53 358 53 187 m 250 358 q 287 202 250 260 q 423 130 332 130 q 599 358 599 130 q 423 589 599 589 q 250 358 250 589 "},"5":{"x_min":25,"x_max":747,"ha":772,"o":"m 694 972 l 694 809 l 293 809 l 254 588 l 256 586 q 447 662 330 662 q 669 564 585 662 q 747 331 747 472 q 640 81 747 182 q 386 -19 534 -20 q 136 58 234 -17 q 25 288 26 143 l 222 288 q 273 184 229 224 q 381 144 318 144 q 503 199 456 144 q 550 331 550 254 q 504 460 550 408 q 381 513 459 513 q 233 434 290 513 l 55 434 l 151 972 l 694 972 "},"õ":{"x_min":53,"x_max":796,"ha":849,"o":"m 53 358 q 154 634 53 531 q 423 738 255 738 q 694 634 593 738 q 796 358 796 531 q 694 84 796 187 q 423 -19 593 -19 q 154 84 255 -19 q 53 358 53 187 m 250 358 q 287 202 250 260 q 423 130 332 130 q 599 358 599 130 q 423 589 599 589 q 250 358 250 589 m 582 992 l 582 992 l 679 992 q 630 882 655 912 q 523 833 592 833 q 414 857 483 833 q 312 881 345 881 q 253 822 267 881 l 169 822 q 344 992 206 992 q 434 967 375 992 q 524 943 492 943 q 582 992 585 943 "},"7":{"x_min":54,"x_max":717.890625,"ha":772,"o":"m 717 972 l 717 803 q 483 432 573 676 q 400 0 402 211 l 189 0 q 515 789 222 437 l 54 789 l 54 972 l 717 972 "},"K":{"x_min":96,"x_max":1011.28125,"ha":1003,"o":"m 96 0 l 96 992 l 314 992 l 314 580 l 701 992 l 973 992 l 586 600 l 1011 0 l 737 0 l 439 445 l 314 319 l 314 0 l 96 0 "},",":{"x_min":84,"x_max":302,"ha":386,"o":"m 84 0 l 84 214 l 302 214 l 302 0 q 239 -155 302 -93 q 84 -231 177 -217 l 84 -130 q 157 -84 127 -123 q 184 0 186 -45 l 84 0 "},"d":{"x_min":45,"x_max":775,"ha":849,"o":"m 588 0 l 588 91 l 585 91 q 367 -19 520 -19 q 125 99 213 -19 q 45 365 45 206 q 125 624 45 521 q 363 738 213 738 q 578 630 508 738 l 578 630 l 578 992 l 775 992 l 775 0 l 588 0 m 585 361 q 549 519 585 459 q 415 589 504 589 q 280 518 325 589 q 242 359 242 458 q 283 202 242 265 q 415 129 329 129 q 585 361 585 129 "},"¨":{"x_min":-57,"x_max":417,"ha":360,"o":"m 229 829 l 229 992 l 417 992 l 417 829 l 229 829 m -57 829 l -57 992 l 131 992 l 131 829 l -57 829 "},"Ô":{"x_min":53,"x_max":1028,"ha":1081,"o":"m 53 491 q 182 863 53 719 q 540 1015 315 1015 q 898 863 765 1015 q 1028 491 1028 719 q 898 126 1028 269 q 540 -24 764 -24 q 182 126 316 -24 q 53 491 53 269 m 271 491 q 332 263 271 352 q 540 159 404 159 q 748 263 676 159 q 810 491 810 352 q 748 726 810 635 q 540 832 678 832 q 332 726 402 832 q 271 491 271 635 m 297 1081 l 451 1278 l 632 1278 l 785 1081 l 622 1081 l 536 1193 l 447 1081 l 297 1081 "},"E":{"x_min":96,"x_max":848.78125,"ha":900,"o":"m 96 0 l 96 992 l 837 992 l 837 809 l 314 809 l 314 595 l 794 595 l 794 426 l 314 426 l 314 183 l 848 183 l 848 0 l 96 0 "},"Y":{"x_min":-12,"x_max":939.390625,"ha":926,"o":"m 353 0 l 353 386 l -12 992 l 233 992 l 465 600 l 696 992 l 939 992 l 571 380 l 571 0 l 353 0 "},"\"":{"x_min":118,"x_max":525,"ha":643,"o":"m 376 546 l 376 992 l 525 992 l 525 546 l 376 546 m 118 546 l 118 992 l 267 992 l 267 546 l 118 546 "},"‹":{"x_min":58,"x_max":276,"ha":335,"o":"m 276 111 l 58 284 l 58 472 l 276 643 l 276 476 l 151 377 l 276 277 l 276 111 "},"˙":{"x_min":86,"x_max":274,"ha":360,"o":"m 86 829 l 86 992 l 274 992 l 274 829 l 86 829 "},"ê":{"x_min":41,"x_max":757.515625,"ha":797,"o":"m 756 311 l 238 311 q 414 130 246 130 q 517 160 471 130 q 570 222 560 186 l 743 222 q 407 -19 664 -19 q 140 85 239 -19 q 41 358 41 190 q 143 630 41 522 q 407 738 245 738 q 678 607 582 738 q 756 311 767 487 m 238 436 l 559 436 q 402 589 531 589 q 274 533 318 589 q 238 436 240 491 m 155 807 l 309 1004 l 490 1004 l 643 807 l 480 807 l 394 919 l 305 807 l 155 807 "},"Ï":{"x_min":-32,"x_max":442,"ha":410,"o":"m 96 0 l 96 992 l 314 992 l 314 0 l 96 0 m 254 1103 l 254 1266 l 442 1266 l 442 1103 l 254 1103 m -32 1103 l -32 1266 l 156 1266 l 156 1103 l -32 1103 "},"„":{"x_min":75,"x_max":568,"ha":643,"o":"m 371 0 l 371 214 l 568 214 l 568 1 q 513 -155 568 -90 q 371 -232 458 -220 l 371 -140 q 462 0 462 -109 l 371 0 m 75 0 l 75 214 l 272 214 l 272 1 q 217 -155 272 -90 q 75 -232 162 -220 l 75 -140 q 166 0 166 -109 l 75 0 "},"Â":{"x_min":-9,"x_max":962,"ha":951,"o":"m -9 0 l 367 992 l 591 992 l 962 0 l 735 0 l 660 221 l 289 221 l 211 0 l -9 0 m 475 747 l 346 384 l 603 384 l 478 747 l 475 747 m 232 1081 l 386 1278 l 567 1278 l 720 1081 l 557 1081 l 471 1193 l 382 1081 l 232 1081 "},"Í":{"x_min":96,"x_max":451,"ha":410,"o":"m 96 0 l 96 992 l 314 992 l 314 0 l 96 0 m 451 1278 l 237 1081 l 100 1081 l 233 1278 l 451 1278 "},"´":{"x_min":75,"x_max":426,"ha":360,"o":"m 426 1004 l 212 807 l 75 807 l 208 1004 l 426 1004 "},"ì":{"x_min":-65,"x_max":286,"ha":358,"o":"m 80 0 l 80 718 l 277 718 l 277 0 l 80 0 m 148 807 l -65 1004 l 152 1004 l 286 807 l 148 807 "},"±":{"x_min":66,"x_max":767.390625,"ha":833,"o":"m 491 703 l 491 521 l 767 521 l 767 372 l 491 372 l 491 190 l 342 190 l 342 372 l 66 372 l 66 521 l 342 521 l 342 703 l 491 703 m 66 0 l 66 149 l 767 149 l 767 0 l 66 0 "},"Ú":{"x_min":91,"x_max":937,"ha":1029,"o":"m 937 992 l 937 374 q 826 76 937 177 q 513 -24 716 -24 q 91 374 91 -24 l 91 992 l 309 992 l 309 374 q 345 225 309 275 q 513 159 393 159 q 674 211 627 159 q 719 374 719 260 l 719 992 l 937 992 m 761 1278 l 547 1081 l 410 1081 l 543 1278 l 761 1278 "},"|":{"x_min":80,"x_max":229,"ha":310,"o":"m 80 -24 l 80 1015 l 229 1015 l 229 -24 l 80 -24 "},"§":{"x_min":14,"x_max":758,"ha":772,"o":"m 523 398 l 294 527 q 256 541 267 543 q 206 509 227 538 q 186 448 186 480 q 230 380 186 404 l 480 244 q 522 234 502 234 q 566 260 547 234 q 586 311 586 286 q 523 398 586 363 m 686 747 l 514 747 q 482 832 514 799 q 396 866 450 866 q 325 842 356 866 q 291 777 291 816 q 365 681 291 727 q 526 602 379 673 q 685 503 636 549 q 758 346 758 435 q 718 223 758 278 q 614 144 679 167 q 690 -19 690 85 q 594 -194 690 -129 q 394 -253 510 -253 q 172 -189 254 -253 q 82 16 80 -118 l 254 16 q 390 -104 260 -104 q 463 -80 434 -104 q 493 -12 493 -56 q 420 87 493 41 q 256 168 395 102 q 90 270 143 220 q 14 431 14 340 q 162 634 14 581 q 103 774 103 698 q 194 953 103 885 q 393 1015 277 1015 q 601 945 520 1015 q 686 747 686 872 "},"Ý":{"x_min":-12,"x_max":939.390625,"ha":926,"o":"m 353 0 l 353 386 l -12 992 l 233 992 l 465 600 l 696 992 l 939 992 l 571 380 l 571 0 l 353 0 m 709 1278 l 495 1081 l 358 1081 l 491 1278 l 709 1278 "},"b":{"x_min":75,"x_max":798,"ha":849,"o":"m 75 0 l 75 992 l 272 992 l 272 630 l 272 630 q 499 738 343 738 q 703 647 619 738 q 798 360 798 543 q 703 71 798 175 q 501 -19 620 -19 q 265 91 326 -19 l 262 91 l 262 0 l 75 0 m 601 358 q 560 519 601 456 q 433 589 516 589 q 305 519 349 589 q 265 358 265 456 q 305 198 265 261 q 433 129 351 129 q 560 198 514 129 q 601 358 601 261 "},"q":{"x_min":45,"x_max":775,"ha":849,"o":"m 775 718 l 775 -253 l 578 -253 l 578 90 l 578 90 q 350 -19 512 -19 q 148 64 231 -19 q 45 354 45 164 q 124 619 45 514 q 367 738 213 738 q 585 626 522 738 l 588 626 l 588 718 l 775 718 m 242 358 q 279 200 242 260 q 412 130 322 130 q 547 199 501 130 q 585 356 585 257 q 547 514 585 451 q 417 589 503 589 q 282 518 328 589 q 242 358 242 455 "},"Ö":{"x_min":53,"x_max":1028,"ha":1081,"o":"m 53 491 q 182 863 53 719 q 540 1015 315 1015 q 898 863 765 1015 q 1028 491 1028 719 q 898 126 1028 269 q 540 -24 764 -24 q 182 126 316 -24 q 53 491 53 269 m 271 491 q 332 263 271 352 q 540 159 404 159 q 748 263 676 159 q 810 491 810 352 q 748 726 810 635 q 540 832 678 832 q 332 726 402 832 q 271 491 271 635 m 590 1103 l 590 1266 l 778 1266 l 778 1103 l 590 1103 m 304 1103 l 304 1266 l 492 1266 l 492 1103 l 304 1103 "},"z":{"x_min":30,"x_max":690,"ha":721,"o":"m 30 0 l 30 149 l 403 569 l 57 569 l 57 718 l 663 718 l 663 569 l 289 148 l 690 149 l 690 0 l 30 0 "},"™":{"x_min":87,"x_max":1289,"ha":1389,"o":"m 1289 992 l 1289 419 l 1156 419 l 1156 825 l 1156 825 l 1006 419 l 909 419 l 760 825 l 760 825 l 760 419 l 627 419 l 627 992 l 815 992 l 958 615 l 1101 992 l 1289 992 m 553 992 l 553 881 l 392 881 l 392 419 l 250 419 l 250 881 l 87 881 l 87 992 l 553 992 "},"ã":{"x_min":45,"x_max":745.015625,"ha":797,"o":"m 523 277 l 523 351 q 420 319 499 330 q 300 293 329 305 q 242 204 242 266 q 363 113 242 113 q 523 277 523 113 m 264 497 l 67 497 q 179 686 75 625 q 404 738 265 738 q 720 533 720 738 l 720 159 q 745 0 720 40 l 545 0 q 531 69 532 38 q 289 -19 446 -19 q 115 33 181 -19 q 45 196 45 90 q 121 360 45 306 q 289 414 177 397 q 452 437 449 436 q 523 508 523 456 q 484 589 523 567 q 395 606 456 606 q 264 497 274 606 m 557 992 l 557 992 l 654 992 q 605 882 630 912 q 498 833 567 833 q 389 857 458 833 q 287 881 320 881 q 228 822 242 881 l 144 822 q 319 992 181 992 q 409 967 350 992 q 499 943 467 943 q 557 992 560 943 "},"æ":{"x_min":53,"x_max":1219,"ha":1260,"o":"m 535 261 l 535 350 q 458 320 511 330 q 365 305 412 312 q 250 205 250 284 q 372 113 250 113 q 480 147 434 113 q 535 261 535 189 m 1219 311 l 707 311 q 750 176 704 234 q 878 113 800 113 q 1022 225 1002 113 l 1212 225 q 1092 46 1183 112 q 882 -19 1001 -19 q 614 102 698 -19 q 321 -19 521 -19 q 136 28 207 -19 q 53 194 53 83 q 128 358 53 306 q 293 414 182 397 q 476 446 451 437 q 535 514 535 464 q 406 606 535 606 q 269 494 273 606 l 72 494 q 181 683 76 621 q 410 738 269 738 q 648 640 583 738 q 888 738 731 738 q 1144 608 1057 738 q 1219 311 1219 495 m 707 436 l 1022 436 q 983 554 1023 505 q 867 606 938 606 q 752 555 795 606 q 707 436 708 505 "},"®":{"x_min":22,"x_max":1089,"ha":1111,"o":"m 22 496 q 183 874 22 726 q 555 1015 335 1015 q 927 874 775 1015 q 1089 496 1089 726 q 927 117 1089 266 q 555 -24 775 -24 q 183 117 335 -24 q 22 496 22 266 m 164 496 q 277 203 164 320 q 555 87 390 87 q 833 203 719 87 q 947 496 947 320 q 833 787 947 671 q 555 904 719 904 q 277 787 390 904 q 164 496 164 671 m 348 206 l 348 789 l 567 789 q 795 616 795 789 q 642 461 795 473 l 795 206 l 675 206 l 534 456 l 463 456 l 463 206 l 348 206 m 463 699 l 463 546 l 565 546 q 645 558 620 546 q 680 626 680 576 q 560 699 680 699 l 463 699 "},"É":{"x_min":96,"x_max":848.78125,"ha":900,"o":"m 96 0 l 96 992 l 837 992 l 837 809 l 314 809 l 314 595 l 794 595 l 794 426 l 314 426 l 314 183 l 848 183 l 848 0 l 96 0 m 697 1278 l 483 1081 l 346 1081 l 479 1278 l 697 1278 "},"~":{"x_min":93,"x_max":740,"ha":833,"o":"m 684 478 l 684 478 l 740 348 q 670 266 698 290 q 566 229 623 229 q 424 275 508 229 q 265 324 337 324 q 148 224 194 324 l 93 353 q 266 473 155 473 q 420 428 319 473 q 562 377 534 377 q 684 478 619 377 "},"³":{"x_min":29.96875,"x_max":514,"ha":544,"o":"m 227 644 l 227 741 q 359 806 359 741 q 333 860 359 840 q 272 881 307 881 q 204 852 229 881 q 180 780 178 823 l 47 780 q 109 934 49 877 q 271 992 169 992 q 422 948 360 992 q 492 821 492 901 q 400 701 492 725 l 400 698 q 483 653 452 689 q 514 568 514 617 q 441 418 514 472 q 273 367 376 367 q 93 424 159 367 q 30 588 28 482 l 163 588 q 192 509 165 541 q 270 478 220 478 q 342 502 313 478 q 372 565 372 527 q 321 634 372 616 q 227 644 294 644 "},"¡":{"x_min":84,"x_max":302,"ha":386,"o":"m 302 738 l 302 524 l 84 524 l 84 738 l 302 738 m 90 -254 l 90 12 l 144 440 l 243 440 l 296 12 l 296 -254 l 90 -254 "},"[":{"x_min":94,"x_max":460.671875,"ha":463,"o":"m 94 -253 l 94 1015 l 460 1015 l 460 859 l 291 859 l 291 -97 l 460 -97 l 460 -253 l 94 -253 "},"L":{"x_min":96,"x_max":797.390625,"ha":824,"o":"m 96 0 l 96 992 l 314 992 l 314 183 l 797 183 l 797 0 l 96 0 "}," ":{"x_min":0,"x_max":0,"ha":386},"%":{"x_min":104,"x_max":1285,"ha":1389,"o":"m 104 716 q 160 911 104 837 q 340 992 223 992 q 568 711 568 992 q 511 523 568 591 q 333 450 449 450 q 104 716 104 450 m 246 714 q 257 611 246 644 q 334 554 276 554 q 426 712 426 554 q 340 888 426 888 q 246 714 246 888 m 352 -31 l 927 1003 l 1045 1003 l 473 -31 l 352 -31 m 821 254 q 877 444 821 373 q 1057 522 940 522 q 1285 248 1285 522 q 1228 58 1285 129 q 1050 -19 1166 -19 q 821 254 821 -19 m 963 252 q 1051 85 963 85 q 1143 251 1143 85 q 1057 418 1143 418 q 963 252 963 418 "},"P":{"x_min":96,"x_max":886,"ha":926,"o":"m 96 0 l 96 992 l 543 992 q 806 893 716 992 q 886 674 886 808 q 806 454 886 539 q 543 356 716 356 l 314 356 l 314 0 l 96 0 m 314 823 l 314 525 l 483 525 q 616 551 572 525 q 675 674 675 587 q 616 796 675 760 q 483 823 572 823 l 314 823 "},"À":{"x_min":-9,"x_max":962,"ha":951,"o":"m -9 0 l 367 992 l 591 992 l 962 0 l 735 0 l 660 221 l 289 221 l 211 0 l -9 0 m 475 747 l 346 384 l 603 384 l 478 747 l 475 747 m 444 1081 l 231 1278 l 448 1278 l 582 1081 l 444 1081 "},"_":{"x_min":0,"x_max":694,"ha":694,"o":"m 0 -174 l 0 -104 l 694 -104 l 694 -174 l 0 -174 "},"ñ":{"x_min":75,"x_max":748,"ha":824,"o":"m 75 0 l 75 718 l 262 718 l 262 618 l 266 618 q 485 738 340 738 q 695 657 634 738 q 748 441 748 587 l 748 0 l 551 0 l 551 405 q 424 582 551 582 q 308 533 344 582 q 272 376 272 484 l 272 0 l 75 0 m 570 992 l 570 992 l 667 992 q 618 882 643 912 q 511 833 580 833 q 402 857 471 833 q 300 881 333 881 q 241 822 255 881 l 157 822 q 332 992 194 992 q 422 967 363 992 q 512 943 480 943 q 570 992 573 943 "},"+":{"x_min":66,"x_max":767.390625,"ha":833,"o":"m 491 701 l 491 425 l 767 425 l 767 276 l 491 276 l 491 0 l 342 0 l 342 276 l 66 276 l 66 425 l 342 425 l 342 701 l 491 701 "},"‚":{"x_min":94,"x_max":291,"ha":386,"o":"m 94 0 l 94 214 l 291 214 l 291 1 q 236 -155 291 -90 q 94 -232 181 -220 l 94 -140 q 185 0 185 -109 l 94 0 "},"½":{"x_min":34,"x_max":1176,"ha":1235,"o":"m 211 -31 l 786 1003 l 904 1003 l 332 -31 l 211 -31 m 329 979 l 329 379 l 187 379 l 187 760 l 34 760 l 34 864 q 212 979 195 858 l 329 979 m 850 371 l 708 371 q 770 546 706 481 q 959 612 834 612 q 1110 564 1051 612 q 1176 424 1176 513 q 1063 247 1176 320 q 966 187 1014 217 q 879 111 909 151 l 1170 111 l 1170 0 l 708 0 q 764 165 709 99 q 901 272 800 208 q 988 330 977 320 q 1034 414 1034 367 q 1010 476 1034 452 q 949 501 986 501 q 869 456 897 501 q 850 371 847 420 "},"Æ":{"x_min":-14,"x_max":1312.390625,"ha":1363,"o":"m 581 809 l 390 384 l 629 384 l 629 809 l 581 809 m -14 0 l 459 992 l 1301 992 l 1301 809 l 840 809 l 840 595 l 1273 595 l 1273 426 l 840 426 l 840 183 l 1312 183 l 1312 0 l 629 0 l 629 221 l 317 221 l 217 0 l -14 0 "},"Ë":{"x_min":96,"x_max":848.78125,"ha":900,"o":"m 96 0 l 96 992 l 837 992 l 837 809 l 314 809 l 314 595 l 794 595 l 794 426 l 314 426 l 314 183 l 848 183 l 848 0 l 96 0 m 500 1103 l 500 1266 l 688 1266 l 688 1103 l 500 1103 m 214 1103 l 214 1266 l 402 1266 l 402 1103 l 214 1103 "},"'":{"x_min":119,"x_max":268,"ha":386,"o":"m 119 546 l 119 992 l 268 992 l 268 546 l 119 546 "},"Š":{"x_min":32.984375,"x_max":868,"ha":901,"o":"m 33 329 l 244 329 q 310 186 244 235 q 463 145 367 145 q 588 168 538 145 q 657 268 657 200 q 504 396 657 353 q 218 482 239 471 q 66 714 66 556 q 184 941 66 857 q 436 1015 289 1015 q 713 941 607 1015 q 834 695 834 856 l 623 695 q 427 846 614 846 q 325 820 367 846 q 277 733 277 790 q 331 654 277 679 q 573 583 372 634 q 747 516 690 554 q 868 294 868 438 q 762 66 868 152 q 455 -24 651 -24 q 160 60 276 -24 q 33 329 31 156 m 695 1278 l 542 1081 l 361 1081 l 207 1278 l 362 1278 l 451 1165 l 542 1278 l 695 1278 "},"ª":{"x_min":14,"x_max":469.546875,"ha":478,"o":"m 320 715 l 320 743 q 276 726 307 731 q 226 718 251 722 q 156 662 156 702 q 218 611 156 611 q 320 715 320 611 m 169 840 l 27 840 q 244 992 48 992 q 453 868 453 992 l 453 637 q 469 533 453 562 l 329 533 q 319 576 322 554 q 169 521 265 521 q 14 659 14 521 q 171 794 14 774 q 277 808 270 805 q 320 847 320 817 q 236 902 320 902 q 169 840 174 902 "},"Œ":{"x_min":54,"x_max":1460.9375,"ha":1518,"o":"m 756 0 l 756 75 l 754 75 q 515 -24 663 -24 q 174 130 302 -24 q 54 489 54 274 q 176 855 54 706 q 519 1015 308 1015 q 754 920 680 1015 l 756 920 l 756 992 l 1451 992 l 1451 809 l 959 809 l 959 595 l 1409 595 l 1409 426 l 959 426 l 959 183 l 1460 183 l 1460 0 l 756 0 m 748 385 l 748 622 q 687 773 748 715 q 534 832 627 832 q 330 724 399 832 q 272 492 272 633 q 331 264 272 355 q 530 159 401 159 q 689 221 630 159 q 748 385 748 284 "},"˛":{"x_min":12,"x_max":346.71875,"ha":360,"o":"m 279 -177 l 346 -208 q 160 -303 273 -303 q 12 -177 12 -303 q 170 4 12 -90 l 260 4 q 145 -172 145 -100 q 161 -206 145 -193 q 199 -220 177 -220 q 279 -177 249 -220 "},"ð":{"x_min":53,"x_max":796.03125,"ha":849,"o":"m 423 130 q 599 358 599 130 q 558 503 599 446 q 422 571 511 571 q 287 503 333 571 q 250 358 250 446 q 287 202 250 260 q 423 130 332 130 m 184 823 l 333 898 q 216 968 272 941 l 344 1064 q 482 972 419 1022 l 653 1058 l 725 976 l 566 897 q 796 379 798 673 q 694 94 794 205 q 423 -19 590 -19 q 154 81 255 -19 q 53 343 53 182 q 129 587 53 486 q 372 703 216 703 q 559 647 480 703 l 562 647 q 421 823 526 730 l 265 745 l 184 823 "},"T":{"x_min":18,"x_max":830.5,"ha":849,"o":"m 315 0 l 315 809 l 18 809 l 18 992 l 830 992 l 830 809 l 533 809 l 533 0 l 315 0 "},"š":{"x_min":40,"x_max":705,"ha":746,"o":"m 40 233 l 228 233 q 275 140 229 172 q 379 113 315 113 q 465 132 430 113 q 508 204 508 157 q 449 271 508 246 q 284 315 408 289 q 127 374 179 338 q 57 507 57 421 q 369 738 57 738 q 686 508 666 738 l 498 508 q 363 606 491 606 q 254 539 254 606 q 323 468 254 493 q 477 432 331 465 q 634 371 584 407 q 705 231 705 321 q 602 35 705 100 q 377 -19 517 -19 q 149 36 237 -19 q 40 233 45 101 m 617 1004 l 464 807 l 283 807 l 129 1004 l 284 1004 l 373 891 l 464 1004 l 617 1004 "},"Þ":{"x_min":96,"x_max":886,"ha":926,"o":"m 96 0 l 96 992 l 314 992 l 314 857 l 543 857 q 806 758 716 857 q 886 539 886 673 q 806 319 886 404 q 543 221 716 221 l 314 221 l 314 0 l 96 0 m 314 688 l 314 390 l 483 390 q 616 416 572 390 q 675 539 675 452 q 616 661 675 625 q 483 688 572 688 l 314 688 "},"j":{"x_min":-25,"x_max":291,"ha":386,"o":"m -25 -247 l -25 -84 q 17 -90 -8 -90 q 94 -26 94 -90 l 94 718 l 291 718 l 291 -36 q 239 -200 291 -151 q 38 -253 182 -253 q -25 -247 16 -253 m 291 992 l 291 829 l 94 829 l 94 992 l 291 992 "},"1":{"x_min":104,"x_max":545,"ha":772,"o":"m 545 972 l 545 0 l 348 0 l 348 631 l 104 631 l 104 780 q 388 972 360 774 l 545 972 "},"›":{"x_min":58,"x_max":276,"ha":335,"o":"m 58 643 l 276 472 l 276 284 l 58 111 l 58 277 l 183 377 l 58 476 l 58 643 "},"ı":{"x_min":80,"x_max":277,"ha":358,"o":"m 80 0 l 80 718 l 277 718 l 277 0 l 80 0 "},"ä":{"x_min":45,"x_max":745.015625,"ha":797,"o":"m 523 277 l 523 351 q 420 319 499 330 q 300 293 329 305 q 242 204 242 266 q 363 113 242 113 q 523 277 523 113 m 264 497 l 67 497 q 179 686 75 625 q 404 738 265 738 q 720 533 720 738 l 720 159 q 745 0 720 40 l 545 0 q 531 69 532 38 q 289 -19 446 -19 q 115 33 181 -19 q 45 196 45 90 q 121 360 45 306 q 289 414 177 397 q 452 437 449 436 q 523 508 523 456 q 484 589 523 567 q 395 606 456 606 q 264 497 274 606 m 448 829 l 448 992 l 636 992 l 636 829 l 448 829 m 162 829 l 162 992 l 350 992 l 350 829 l 162 829 "},"<":{"x_min":64,"x_max":770,"ha":833,"o":"m 770 714 l 770 554 l 259 351 l 770 148 l 770 -11 l 64 269 l 64 433 l 770 714 "},"£":{"x_min":29,"x_max":787.328125,"ha":772,"o":"m 122 -24 l 35 105 q 193 335 193 206 q 166 429 193 376 l 29 429 l 29 547 l 117 547 q 55 738 55 624 q 145 931 55 855 q 411 1015 242 1015 q 660 924 570 1015 q 749 668 750 834 l 561 668 q 537 780 555 744 q 409 852 501 852 q 310 817 348 852 q 273 724 273 782 q 330 547 273 649 l 515 547 l 515 429 l 369 429 q 381 342 381 391 q 266 147 381 238 l 269 145 q 363 178 320 178 q 473 161 401 178 q 581 145 545 145 q 704 205 647 145 l 787 65 q 570 -24 694 -24 q 419 2 506 -24 q 281 29 333 29 q 122 -24 190 29 "},"¹":{"x_min":108,"x_max":403,"ha":544,"o":"m 403 979 l 403 379 l 261 379 l 261 760 l 108 760 l 108 864 q 286 979 269 858 l 403 979 "},"t":{"x_min":9,"x_max":470.109375,"ha":489,"o":"m 325 933 l 325 718 l 470 718 l 470 586 l 325 586 l 325 231 q 341 164 325 181 q 408 148 358 148 q 470 152 442 148 l 470 -1 q 354 -8 428 -8 q 128 162 128 -8 l 128 586 l 9 586 l 9 718 l 128 718 l 128 933 l 325 933 "},"¬":{"x_min":66,"x_max":766,"ha":833,"o":"m 766 564 l 766 138 l 617 138 l 617 415 l 66 415 l 66 564 l 766 564 "},"ù":{"x_min":75,"x_max":748,"ha":824,"o":"m 748 718 l 748 0 l 561 0 l 561 100 l 556 100 q 337 -19 483 -19 q 127 62 188 -19 q 75 276 75 130 l 75 718 l 272 718 l 272 312 q 398 136 272 136 q 514 184 478 136 q 551 341 551 233 l 551 718 l 748 718 m 380 807 l 167 1004 l 384 1004 l 518 807 l 380 807 "},"W":{"x_min":4,"x_max":1307,"ha":1311,"o":"m 1307 992 l 1040 0 l 823 0 l 655 675 l 652 675 l 487 0 l 266 0 l 4 992 l 222 992 l 379 317 l 381 317 l 554 992 l 758 992 l 927 308 l 930 308 l 1093 992 l 1307 992 "},"ï":{"x_min":-57,"x_max":417,"ha":358,"o":"m 80 0 l 80 718 l 277 718 l 277 0 l 80 0 m 229 829 l 229 992 l 417 992 l 417 829 l 229 829 m -57 829 l -57 992 l 131 992 l 131 829 l -57 829 "},">":{"x_min":64,"x_max":770,"ha":833,"o":"m 64 -11 l 64 148 l 573 351 l 64 554 l 64 714 l 770 433 l 770 269 l 64 -11 "},"v":{"x_min":7,"x_max":715,"ha":722,"o":"m 715 718 l 472 0 l 252 0 l 7 718 l 213 718 l 365 227 l 367 227 l 519 718 l 715 718 "},"û":{"x_min":75,"x_max":748,"ha":824,"o":"m 748 718 l 748 0 l 561 0 l 561 100 l 556 100 q 337 -19 483 -19 q 127 62 188 -19 q 75 276 75 130 l 75 718 l 272 718 l 272 312 q 398 136 272 136 q 514 184 478 136 q 551 341 551 233 l 551 718 l 748 718 m 168 807 l 322 1004 l 503 1004 l 656 807 l 493 807 l 407 919 l 318 807 l 168 807 "},"Ò":{"x_min":53,"x_max":1028,"ha":1081,"o":"m 53 491 q 182 863 53 719 q 540 1015 315 1015 q 898 863 765 1015 q 1028 491 1028 719 q 898 126 1028 269 q 540 -24 764 -24 q 182 126 316 -24 q 53 491 53 269 m 271 491 q 332 263 271 352 q 540 159 404 159 q 748 263 676 159 q 810 491 810 352 q 748 726 810 635 q 540 832 678 832 q 332 726 402 832 q 271 491 271 635 m 509 1081 l 296 1278 l 513 1278 l 647 1081 l 509 1081 "},"&":{"x_min":44,"x_max":966.234375,"ha":951,"o":"m 530 776 q 502 843 530 815 q 439 871 475 871 q 377 845 403 871 q 351 783 351 820 q 375 702 351 743 q 428 634 384 688 q 500 691 480 668 q 530 776 530 727 m 539 231 l 370 437 q 232 274 232 376 q 274 182 232 220 q 373 144 316 144 q 539 231 462 144 m 724 0 l 644 98 q 364 -19 523 -19 q 137 58 225 -19 q 44 278 44 140 q 266 565 44 462 q 172 776 172 682 q 251 941 172 876 q 430 1003 327 1003 q 622 943 548 1003 q 702 765 702 879 q 525 518 702 611 l 653 361 q 689 479 680 411 l 860 479 q 764 234 845 334 l 966 0 l 724 0 "},"˝":{"x_min":-78,"x_max":554,"ha":360,"o":"m 266 1004 l 59 807 l -78 807 l 48 1004 l 266 1004 m 554 1004 l 347 807 l 209 807 l 335 1004 l 554 1004 "},"Ð":{"x_min":5,"x_max":974,"ha":1029,"o":"m 97 0 l 97 431 l 5 431 l 5 594 l 97 594 l 97 992 l 524 992 q 844 869 725 992 q 974 501 974 740 q 862 143 974 276 q 524 0 743 0 l 97 0 m 315 809 l 315 594 l 536 594 l 536 431 l 315 431 l 315 183 l 509 183 q 679 249 614 183 q 756 480 756 327 q 694 719 756 640 q 470 809 625 809 l 315 809 "},"I":{"x_min":96,"x_max":314,"ha":410,"o":"m 96 0 l 96 992 l 314 992 l 314 0 l 96 0 "},"ˉ":{"x_min":-79,"x_max":439,"ha":360,"o":"m -79 856 l -79 960 l 439 960 l 439 856 l -79 856 "},"G":{"x_min":54,"x_max":975,"ha":1054,"o":"m 836 0 l 813 112 q 541 -24 708 -24 q 183 126 317 -24 q 54 491 54 269 q 183 863 54 719 q 541 1015 316 1015 q 817 924 701 1015 q 959 665 942 827 l 751 665 q 676 788 733 745 q 541 832 620 832 q 333 726 403 832 q 272 491 272 635 q 333 263 272 352 q 541 159 405 159 q 778 374 758 159 l 558 374 l 558 537 l 975 537 l 975 0 l 836 0 "},"`":{"x_min":-65,"x_max":286,"ha":360,"o":"m 148 807 l -65 1004 l 152 1004 l 286 807 l 148 807 "},"·":{"x_min":76,"x_max":311,"ha":386,"o":"m 76 398 q 110 482 76 447 q 194 517 145 517 q 276 481 241 517 q 311 398 311 446 q 276 318 311 354 q 195 282 241 282 q 111 316 146 282 q 76 398 76 351 "},"r":{"x_min":75,"x_max":537.5,"ha":540,"o":"m 75 0 l 75 718 l 262 718 l 262 584 l 265 584 q 356 694 291 651 q 494 738 422 738 q 537 731 516 738 l 537 547 q 466 554 506 554 q 272 323 272 554 l 272 0 l 75 0 "},"¿":{"x_min":45,"x_max":725,"ha":772,"o":"m 521 70 l 725 70 q 630 -176 722 -80 q 390 -272 539 -272 q 119 -177 212 -272 q 45 -4 45 -104 q 81 147 45 87 q 161 230 106 188 q 247 297 236 286 q 298 393 289 340 l 298 445 l 486 445 l 486 383 q 445 246 486 302 q 365 166 421 210 q 293 103 309 122 q 263 15 263 65 q 380 -109 263 -109 q 486 -56 450 -109 q 521 70 519 -8 m 505 738 l 505 524 l 287 524 l 287 738 l 505 738 "},"ý":{"x_min":-8,"x_max":730,"ha":721,"o":"m 730 718 l 429 -90 q 340 -215 397 -177 q 182 -253 283 -253 q 61 -246 128 -253 l 61 -83 q 176 -90 165 -91 q 253 0 253 -84 q 244 44 253 23 l -8 718 l 203 718 l 365 226 l 368 226 l 525 718 l 730 718 m 607 1004 l 393 807 l 256 807 l 389 1004 l 607 1004 "},"x":{"x_min":0,"x_max":746,"ha":746,"o":"m 0 0 l 258 377 l 22 718 l 247 718 l 373 530 l 498 718 l 716 718 l 480 382 l 746 0 l 520 0 l 370 226 l 220 0 l 0 0 "},"è":{"x_min":41,"x_max":757.515625,"ha":797,"o":"m 756 311 l 238 311 q 414 130 246 130 q 517 160 471 130 q 570 222 560 186 l 743 222 q 407 -19 664 -19 q 140 85 239 -19 q 41 358 41 190 q 143 630 41 522 q 407 738 245 738 q 678 607 582 738 q 756 311 767 487 m 238 436 l 559 436 q 402 589 531 589 q 274 533 318 589 q 238 436 240 491 m 367 807 l 154 1004 l 371 1004 l 505 807 l 367 807 "},"º":{"x_min":16,"x_max":493,"ha":510,"o":"m 16 755 q 80 928 16 864 q 253 992 145 992 q 427 928 362 992 q 493 755 493 864 q 428 584 493 647 q 253 521 363 521 q 80 584 145 521 q 16 755 16 647 m 165 755 q 185 668 165 704 q 253 625 210 625 q 323 668 298 625 q 344 755 344 704 q 323 846 344 810 q 253 888 298 888 q 185 846 210 888 q 165 755 165 810 "},"Ø":{"x_min":47,"x_max":1033.109375,"ha":1081,"o":"m 47 13 l 166 145 q 53 491 53 284 q 182 863 53 719 q 540 1015 315 1015 q 852 908 727 1015 l 963 1032 l 1033 970 l 916 841 q 1028 491 1028 699 q 898 126 1028 269 q 540 -24 763 -24 q 230 81 354 -24 l 115 -46 l 47 13 m 309 304 l 720 761 q 540 832 652 832 q 332 726 402 832 q 271 491 271 636 q 309 304 271 383 m 772 680 l 362 227 q 540 159 430 159 q 748 263 676 159 q 810 491 810 352 q 772 680 810 599 "},"μ":{"x_min":75,"x_max":748,"ha":824,"o":"m 748 718 l 748 0 l 561 0 l 561 100 l 556 100 q 465 10 522 44 q 376 -19 415 -19 q 272 13 302 -19 l 272 -253 l 75 -253 l 75 718 l 272 718 l 272 312 q 398 136 272 136 q 514 184 478 136 q 551 341 551 233 l 551 718 l 748 718 "},"÷":{"x_min":66,"x_max":767.390625,"ha":833,"o":"m 66 276 l 66 425 l 767 425 l 767 276 l 66 276 m 299 638 q 333 722 299 687 q 417 757 368 757 q 499 721 464 757 q 534 638 534 686 q 499 558 534 594 q 418 522 464 522 q 334 556 369 522 q 299 638 299 591 m 299 62 q 333 144 299 110 q 417 179 368 179 q 499 144 464 179 q 534 62 534 109 q 499 -19 534 17 q 418 -56 464 -56 q 334 -21 369 -56 q 299 62 299 13 "},"h":{"x_min":75,"x_max":748,"ha":824,"o":"m 75 0 l 75 992 l 272 992 l 272 618 l 276 618 q 371 708 312 676 q 485 738 427 738 q 695 657 634 738 q 748 441 748 587 l 748 0 l 551 0 l 551 405 q 424 582 551 582 q 308 533 344 582 q 272 376 272 484 l 272 0 l 75 0 "},".":{"x_min":84,"x_max":302,"ha":386,"o":"m 84 0 l 84 214 l 302 214 l 302 0 l 84 0 "},";":{"x_min":84,"x_max":302,"ha":386,"o":"m 84 0 l 84 214 l 302 214 l 302 0 q 239 -155 302 -93 q 84 -231 177 -217 l 84 -130 q 157 -84 127 -123 q 184 0 186 -45 l 84 0 m 302 706 l 302 492 l 84 492 l 84 706 l 302 706 "},"f":{"x_min":0,"x_max":462.5,"ha":463,"o":"m 118 0 l 118 586 l 0 586 l 0 718 l 118 718 l 118 773 q 179 932 118 872 q 358 992 241 992 q 411 989 377 992 q 462 986 452 986 l 462 838 q 390 843 427 843 q 315 761 315 843 l 315 718 l 451 718 l 451 586 l 315 586 l 315 0 l 118 0 "},"“":{"x_min":75,"x_max":568,"ha":643,"o":"m 568 760 l 568 546 l 371 546 l 371 760 q 425 916 371 851 q 568 992 480 980 l 568 900 q 476 760 476 869 l 568 760 m 272 760 l 272 546 l 75 546 l 75 760 q 129 916 75 851 q 272 992 184 980 l 272 900 q 180 760 180 869 l 272 760 "},"A":{"x_min":-9,"x_max":962,"ha":951,"o":"m -9 0 l 367 992 l 591 992 l 962 0 l 735 0 l 660 221 l 289 221 l 211 0 l -9 0 m 475 747 l 346 384 l 603 384 l 478 747 l 475 747 "},"6":{"x_min":29,"x_max":743,"ha":772,"o":"m 726 722 l 538 722 q 493 808 529 773 q 408 843 458 843 q 263 736 313 843 q 222 547 227 658 l 224 544 q 444 653 301 653 q 667 553 579 653 q 743 336 743 468 q 647 83 743 185 q 402 -19 552 -19 q 105 140 199 -19 q 29 483 29 268 q 116 826 29 687 q 410 992 219 992 q 624 920 538 992 q 726 722 709 848 m 397 504 q 281 452 322 504 q 240 324 240 400 q 281 200 240 252 q 397 144 326 144 q 507 199 463 144 q 546 321 546 250 q 509 447 546 396 q 397 504 469 504 "},"‘":{"x_min":94,"x_max":291,"ha":386,"o":"m 291 760 l 291 546 l 94 546 l 94 760 q 148 916 94 851 q 291 992 203 980 l 291 900 q 199 760 199 869 l 291 760 "},"O":{"x_min":53,"x_max":1028,"ha":1081,"o":"m 53 491 q 182 863 53 719 q 540 1015 315 1015 q 898 863 765 1015 q 1028 491 1028 719 q 898 126 1028 269 q 540 -24 764 -24 q 182 126 316 -24 q 53 491 53 269 m 271 491 q 332 263 271 352 q 540 159 404 159 q 748 263 676 159 q 810 491 810 352 q 748 726 810 635 q 540 832 678 832 q 332 726 402 832 q 271 491 271 635 "},"n":{"x_min":75,"x_max":748,"ha":824,"o":"m 75 0 l 75 718 l 262 718 l 262 618 l 266 618 q 485 738 340 738 q 695 657 634 738 q 748 441 748 587 l 748 0 l 551 0 l 551 405 q 424 582 551 582 q 308 533 344 582 q 272 376 272 484 l 272 0 l 75 0 "},"3":{"x_min":24.921875,"x_max":748,"ha":772,"o":"m 316 440 l 316 579 q 451 595 397 572 q 524 699 524 624 q 483 794 524 759 q 386 829 443 829 q 275 781 314 829 q 237 655 235 733 l 49 655 q 145 898 54 805 q 385 992 236 992 q 607 922 511 992 q 712 722 712 844 q 677 598 712 649 q 575 523 640 541 l 575 523 q 701 444 654 504 q 748 301 748 383 q 638 64 748 153 q 386 -19 536 -19 q 120 75 219 -19 q 25 334 22 169 l 213 334 q 257 200 215 250 q 383 144 301 144 q 496 186 451 144 q 542 296 542 228 q 465 423 542 392 q 316 440 422 440 "},"9":{"x_min":29,"x_max":743,"ha":772,"o":"m 45 250 l 233 250 q 278 164 242 198 q 363 130 313 130 q 508 236 458 130 q 549 425 544 314 l 547 427 q 327 319 470 319 q 104 419 192 319 q 29 636 29 503 q 124 889 29 787 q 369 992 219 992 q 666 832 572 992 q 743 489 743 704 q 655 146 743 285 q 360 -19 552 -19 q 147 52 233 -19 q 45 250 62 123 m 374 468 q 493 522 449 468 q 532 648 532 572 q 490 772 532 720 q 374 829 445 829 q 267 775 308 829 q 226 651 226 722 q 262 524 226 576 q 374 468 303 468 "},"l":{"x_min":80,"x_max":277,"ha":358,"o":"m 80 0 l 80 992 l 277 992 l 277 0 l 80 0 "},"¤":{"x_min":28,"x_max":744.671875,"ha":772,"o":"m 28 207 l 107 287 q 41 485 41 366 q 107 686 41 619 l 28 767 l 107 847 l 186 766 q 389 831 261 831 q 579 768 509 831 l 659 847 l 744 762 l 666 685 q 729 486 729 616 q 665 283 729 362 l 741 205 l 665 129 l 586 211 q 387 142 514 142 q 183 209 258 142 l 105 129 l 28 207 m 389 682 q 259 624 305 682 q 213 485 213 566 q 257 350 213 404 q 387 291 305 291 q 515 352 468 291 q 557 487 557 407 q 515 621 557 566 q 389 682 468 682 "},"":{"x_min":1,"x_max":769,"ha":849,"o":"m 769 992 l 769 829 l 572 829 l 572 992 l 769 992 m 572 0 l 572 718 l 769 718 l 769 0 l 572 0 m 119 0 l 119 586 l 1 586 l 1 718 l 119 718 l 119 773 q 180 932 119 872 q 359 992 242 992 q 412 989 378 992 q 463 986 453 986 l 463 838 q 391 843 428 843 q 316 761 316 843 l 316 718 l 452 718 l 452 586 l 316 586 l 316 0 l 119 0 "},"4":{"x_min":22,"x_max":749.78125,"ha":772,"o":"m 433 0 l 433 225 l 22 225 l 22 405 l 444 972 l 621 972 l 621 388 l 749 388 l 749 225 l 621 225 l 621 0 l 433 0 m 433 388 l 433 725 l 428 725 l 177 388 l 433 388 "},"p":{"x_min":75,"x_max":805,"ha":849,"o":"m 75 -253 l 75 718 l 262 718 l 262 626 l 265 626 q 478 738 333 738 q 725 621 638 738 q 805 351 805 517 q 725 94 805 197 q 488 -19 638 -19 q 272 88 344 -19 l 272 88 l 272 -253 l 75 -253 m 437 130 q 608 357 608 130 q 569 515 608 454 q 435 589 523 589 q 302 516 345 589 q 265 357 265 455 q 304 200 265 260 q 437 130 348 130 "},"‡":{"x_min":33,"x_max":738.5625,"ha":772,"o":"m 291 -231 l 291 38 l 33 38 l 33 201 l 291 201 l 291 555 l 33 555 l 33 718 l 291 718 l 291 992 l 479 992 l 479 718 l 738 718 l 738 555 l 479 555 l 479 201 l 738 201 l 738 38 l 479 38 l 479 -231 l 291 -231 "},"à":{"x_min":45,"x_max":745.015625,"ha":797,"o":"m 523 277 l 523 351 q 420 319 499 330 q 300 293 329 305 q 242 204 242 266 q 363 113 242 113 q 523 277 523 113 m 264 497 l 67 497 q 179 686 75 625 q 404 738 265 738 q 720 533 720 738 l 720 159 q 745 0 720 40 l 545 0 q 531 69 532 38 q 289 -19 446 -19 q 115 33 181 -19 q 45 196 45 90 q 121 360 45 306 q 289 414 177 397 q 452 437 449 436 q 523 508 523 456 q 484 589 523 567 q 395 606 456 606 q 264 497 274 606 m 367 807 l 154 1004 l 371 1004 l 505 807 l 367 807 "},"Ü":{"x_min":91,"x_max":937,"ha":1029,"o":"m 937 992 l 937 374 q 826 76 937 177 q 513 -24 716 -24 q 91 374 91 -24 l 91 992 l 309 992 l 309 374 q 345 225 309 275 q 513 159 393 159 q 674 211 627 159 q 719 374 719 260 l 719 992 l 937 992 m 564 1103 l 564 1266 l 752 1266 l 752 1103 l 564 1103 m 278 1103 l 278 1266 l 466 1266 l 466 1103 l 278 1103 "},"ó":{"x_min":53,"x_max":796,"ha":849,"o":"m 53 358 q 154 634 53 531 q 423 738 255 738 q 694 634 593 738 q 796 358 796 531 q 694 84 796 187 q 423 -19 593 -19 q 154 84 255 -19 q 53 358 53 187 m 250 358 q 287 202 250 260 q 423 130 332 130 q 599 358 599 130 q 423 589 599 589 q 250 358 250 589 m 670 1004 l 456 807 l 319 807 l 452 1004 l 670 1004 "}}}
